<!-- Generator: Adobe Illustrator 21.0.2, SVG Export Plug-In  -->
<svg version="1.1"
     xmlns="http://www.w3.org/2000/svg" xmlns:xlink="http://www.w3.org/1999/xlink" xmlns:a="http://ns.adobe.com/AdobeSVGViewerExtensions/3.0/"
     x="0px" y="0px" width="1816.9px" height="1216.3px" viewBox="0 0 1816.9 1216.3"
     style="enable-background:new 0 0 1816.9 1216.3;" xml:space="preserve">
<defs>
</defs>
<path fill="#FFFFFF" d="M1013.8,1083.6c-139.6,60.3-196.3,21.4-211.6,1.9c30.7,6.4,88.9,11.8,128.8-5.3c-29.7-4-54.3-9.1-72.6-37.9
    c-5.2-8.2-10.5-18.3-15.9-29.9l0.4,0.4c0,0-1.7-13.5,5.1-34.7c5.6-17.5,118.2-208.3,156.6-273.1c7.2,5.3,12.6,10.4,14.8,14.4
    c2.3,4.1,4.6,8.7,7.1,13.7c4.4,9.7,1.8,60.4-21,92.6s-61.8,71.9-61.8,128.6c20.3-54.2,44.9-77,77.9-112.6
    c33-35.5,22.4-68.4,22.4-68.4l0,0c32.7,82,67.5,199.9,67.5,199.9l21.8-10.5l21.2-10.2c0,0-44.7-155-50.8-268.3
    c-1-18.7-1.7-34.7,8.2-50.3c-80.9-78.3-206.5-88.7-206.5-88.7s-130,67.9-235.8,248.9c149.8-115,236.1-125.1,263.4-121.9
    c2.9,0.3,6.1,1,9.5,1.9h0c22.4,8.4,24.1,25.4,14,52.4c-8.9,23.8-104.3,198.2-127.1,240.6c-0.8,1.5-2,3.5-3.3,5.5
    c-31.2-80.1-59.4-184.4-59.4-184.4l-21.8,10.5L723.4,809c0,0,17.9,221.5,42.7,318.6c80.9,78.3,206.5,88.7,206.5,88.7
    s130-67.9,235.8-248.9C1123.3,1032.6,1013.8,1083.6,1013.8,1083.6z"/>
<g>
    <g>
        <path fill="#FFFFFF" d="M305.7,275.1V107.7c0-2-1.2-3.3-3.7-3.7H3.7c-2,0-3.3,1.2-3.7,3.7v479.2c0,2.5,1.2,3.7,3.7,3.7h183
            c81.6-56,123.9-86.2,126.8-90.5V377.1c-3.6-3.9-26.8-18.6-69.4-44.2L305.7,275.1z M196.2,461.8c-0.2,1.4-13.7,11-40.5,28.9h-38.4
            V377.1H152c5.9,0,20.6,9,44.2,26.9V461.8z M196.2,252.3c-25.2,26.8-38.7,40.1-40.5,40.1h-38.4v-97.9h78.9V252.3z"/>
    </g>
    <g>
        <path fill="#FFFFFF" d="M1240.3,586.9c0,2.5,1.2,3.7,3.7,3.7h235.1c5.4,0,37.1-21.2,95.3-63.7c23.3,16.5,53.5,37.7,90.6,63.7h3.7l120.4-81.6v-2
            c-8.2-8.2-35.4-27.3-81.6-57.5c-2.5,0-15.4,9.9-38.8,29.6h-2c-24.5-19.9-36.8-30.4-37.1-31.3v-83.7h74.1c2.5,0,3.7-1.2,3.7-3.7
            v-77.9c0-2-1.2-3.3-3.7-3.7h-74.1v-89.1h137.4c2.5,0,3.7-1.2,3.7-3.7V106c0-2-1.2-3.3-3.7-3.7h-44.5l-9.2-1.7
            c0,1.1-1.9,1.7-5.8,1.7h-24.1c-2.7,0-5.2-0.6-7.5-1.7c-2,1.1-4.4,1.7-7.1,1.7h-31.6c-2.7,0-5.2-0.6-7.5-1.7
            c-2.3,1.1-4.8,1.7-7.5,1.7h-102c-2,0-3.3,1.2-3.7,3.7v68.7c0,7.9,0.6,17.2,1.7,27.9c-1.1,3.9-1.7,11.3-1.7,22.4
            c0,12,0.6,18.1,1.7,18.4c-1.1,10.7-1.7,19.4-1.7,26.2v173.7l-60.5,45.4h-100.5V106c0-2-1.2-3.3-3.7-3.7H1244
            c-1.3,0-2.2,0.5-2.9,1.4c-0.7-0.7-1.7-1.2-3.2-1.4H943.3H938H643.3c-1.4,0-2.4,0.6-3,1.7C626.8,93,577.4,58.3,492.1,0h-1.7
            c-92.5,63.9-142.5,99.1-150,105.4v481.5c0,2.5,1.2,3.7,3.7,3.7h105.4c2.5,0,3.7-1.2,3.7-3.7v-81.3h75.8v81.3
            c0,2.5,1.2,3.7,3.7,3.7h105.4c2.5,0,3.7-1.2,3.7-3.7V194.3c0.4,0.1,0.8,0.2,1.3,0.2h90.5v442.8c0,0,35.5-39.7,64.5-63.7
            c26.7-22.1,50.7-40,50.7-40V194.5H938h5.3h85.1v340.5c0,0,25.9,10.7,59.9,30.7s55.4,44,55.4,44V194.5h94.2c1,0,1.7-0.2,2.3-0.5
            V586.9z M529.1,411.1h-75.8V144.2c6.6-8.2,19.5-19.3,38.8-33.3c24.5,20.2,36.8,30.7,37.1,31.6V411.1z"/>
    </g>
    <g>
        <path fill="#FFFFFF" d="M1732.5,979.2l-52,36.4H1640V633c0-2-1.2-3.3-3.7-3.7h-107.8c-2,0-3.3,1.2-3.7,3.7v334.6l-68.7,48h-100.5V633
            c0-2-1.2-3.3-3.7-3.7H1244c-2,0-3.3,1.2-3.7,3.7v480.9c0,2.5,1.2,3.7,3.7,3.7h215.1c4.4,0,26.2-14.1,65.6-42.2v38.5
            c0,2.5,1.2,3.7,3.7,3.7h175.1c5.9,0,43.6-25.6,113.2-76.9v-3.7C1810.1,1033.7,1781.9,1014.4,1732.5,979.2z"/>
    </g>
    <g>
        <path fill="#FFFFFF" d="M636.4,630.3H330.3c-2,0-3.3,1.2-3.7,3.7v480.9c0,2.5,1.2,3.7,3.7,3.7h109.8c2.5,0,3.7-1.2,3.7-3.7v-109.5l194.2,132.6
            l2-3.7v-113.6c-0.9-1.6-40.7-29.8-119.4-84.7c73-47.4,112.8-74.9,119.4-82.6V634.1C640.1,632,638.9,630.8,636.4,630.3z
             M522.8,822.8c-0.2,1.1-26.5,19.7-78.9,55.8V722.5h78.9V822.8z"/>
    </g>
</g>
</svg>
