<svg version="1.1" xmlns="http://www.w3.org/2000/svg" xmlns:xlink="http://www.w3.org/1999/xlink" xmlns:a="http://ns.adobe.com/AdobeSVGViewerExtensions/3.0/" viewBox="0 0 3463.9 681.3">
    <path fill="#FFFFFF" d="M643.3,102.3h299.9c2.7,0.5,4.1,1.7,4.1,3.7v84.7c0,2.5-1.4,3.7-4.1,3.7h-94.2v392.5c0,2.5-1.2,3.7-3.7,3.7H737.5
        c-2.5,0-3.7-1.2-3.7-3.7V194.5h-90.5c-2.5,0-3.7-1.2-3.7-3.7V106C640,103.5,641.3,102.3,643.3,102.3z"/>
    <path fill="#FFFFFF" d="M938,102.3h299.9c2.7,0.5,4.1,1.7,4.1,3.7v84.7c0,2.5-1.4,3.7-4.1,3.7h-94.2v392.5c0,2.5-1.2,3.7-3.7,3.7h-107.8
        c-2.5,0-3.7-1.2-3.7-3.7V194.5H938c-2.5,0-3.7-1.2-3.7-3.7V106C934.7,103.5,935.9,102.3,938,102.3z"/>
    <path fill="#FFFFFF" d="M490.4,0h1.7c89.6,61.2,139.5,96.4,150,105.4v481.5c0,2.5-1.2,3.7-3.7,3.7H532.9c-2.5,0-3.7-1.2-3.7-3.7v-81.3h-75.8v81.3
        c0,2.5-1.2,3.7-3.7,3.7H344.1c-2.5,0-3.7-1.2-3.7-3.7V105.4C347.9,99.1,397.9,63.9,490.4,0z M453.3,144.2v266.9h75.8V142.5
        c-0.2-0.9-12.6-11.4-37.1-31.6C472.8,124.9,459.9,136,453.3,144.2z"/>
    <path fill="#FFFFFF" d="M3.7,104H302c2.5,0.5,3.7,1.7,3.7,3.7v167.3l-61.6,57.8c42.6,25.6,65.7,40.4,69.4,44.2v123.1
        c-2.9,4.3-45.2,34.5-126.8,90.5H3.7c-2.5,0-3.7-1.2-3.7-3.7V107.7C0.5,105.2,1.7,104,3.7,104z M117.3,194.5v97.9h38.4
        c1.8,0,15.3-13.4,40.5-40.1v-57.8H117.3z M117.3,377.1v113.6h38.4c26.7-17.9,40.2-27.5,40.5-28.9v-57.8
        c-23.6-17.9-38.3-26.9-44.2-26.9H117.3z"/>
    <path fill="#FFFFFF" d="M1244,102.3h107.8c2.5,0.5,3.7,1.7,3.7,3.7v382.6H1456l93.3-70c49.4,35.1,36.3,88,43.1,91.4v3.7
        c-69.6,51.2-107.4,76.9-113.2,76.9H1244c-2.5,0-3.7-1.2-3.7-3.7V106C1240.7,103.5,1242,102.3,1244,102.3z"/>
    <path fill="#FFFFFF" d="M1629.7,100.6c2.3,1.1,4.8,1.7,7.5,1.7h31.6c2.7,0,5.1-0.6,7.1-1.7c2.3,1.1,4.8,1.7,7.5,1.7h24.1c3.9,0,5.8-0.6,5.8-1.7
        l9.2,1.7h44.5c2.5,0.5,3.7,1.7,3.7,3.7V186c0,2.5-1.2,3.7-3.7,3.7h-137.4v89.1h74.1c2.5,0.5,3.7,1.7,3.7,3.7v77.9
        c0,2.5-1.2,3.7-3.7,3.7h-74.1v83.7c0.2,0.9,12.6,11.3,37.1,31.3h2c23.3-19.7,36.3-29.6,38.8-29.6c46.3,30.2,73.5,49.3,81.6,57.5v2
        l-120.4,81.6h-3.7c-94.5-66.2-144.1-101.5-148.6-105.8V269.6c0-6.8,0.6-15.5,1.7-26.2c-1.1-0.2-1.7-6.3-1.7-18.4
        c0-11.1,0.6-18.6,1.7-22.4c-1.1-10.7-1.7-19.9-1.7-27.9V106c0.5-2.5,1.7-3.7,3.7-3.7h102C1625,102.3,1627.5,101.7,1629.7,100.6z"/>
    <path fill="#FFFFFF" d="M2663.8,548.6c-139.6,60.3-196.3,21.4-211.6,1.9c30.7,6.4,88.9,11.8,128.8-5.3c-29.7-4-54.3-9.1-72.6-37.9
        c-5.2-8.2-10.5-18.3-15.9-29.9l0.4,0.4c0,0-1.7-13.5,5.1-34.7c5.6-17.5,118.2-208.3,156.6-273.1c7.2,5.3,12.6,10.4,14.8,14.4
        c2.3,4.1,4.6,8.7,7.1,13.7c4.4,9.7,1.8,60.4-21,92.6c-22.9,32.2-61.8,71.9-61.8,128.6c20.3-54.2,44.9-77,77.9-112.6
        s22.4-68.4,22.4-68.4l0,0c32.7,82,67.5,199.9,67.5,199.9l21.8-10.5l21.2-10.2c0,0-44.7-155-50.8-268.3c-1-18.7-1.7-34.7,8.2-50.3
        c-80.9-78.3-206.5-88.7-206.5-88.7s-130,67.9-235.8,248.9c149.8-115,236.1-125.1,263.4-121.9c2.9,0.3,6.1,1,9.5,1.9h0
        c22.4,8.4,24.1,25.4,14,52.4c-8.9,23.8-104.3,198.2-127.1,240.6c-0.8,1.5-2,3.5-3.3,5.5c-31.2-80.1-59.4-184.4-59.4-184.4
        l-21.8,10.5l-21.2,10.2c0,0,17.9,221.5,42.7,318.6c80.9,78.3,206.5,88.7,206.5,88.7s130-67.9,235.8-248.9
        C2773.3,497.6,2663.8,548.6,2663.8,548.6z"/>
    <path fill="#FFFFFF" d="M3175.5,97.3h107.8c2.5,0.5,3.7,1.7,3.7,3.7v382.6h40.5l52-36.4c49.4,35.1,77.5,54.4,84.3,57.8v3.7
        c-69.6,51.2-107.4,76.9-113.2,76.9h-175.1c-2.5,0-3.7-1.2-3.7-3.7V101C3172.2,98.5,3173.4,97.3,3175.5,97.3z"/>
    <path fill="#FFFFFF" d="M2891,97.3h107.8c2.5,0.5,3.7,1.7,3.7,3.7v382.6H3103l77.3-54c49.4,35.1,32.3,72,39.1,75.4v3.7
        c-69.6,51.2-107.4,76.9-113.2,76.9H2891c-2.5,0-3.7-1.2-3.7-3.7V101C2887.7,98.5,2889,97.3,2891,97.3z"/>
    <path fill="#FFFFFF" d="M1977.3,98.3h306.1c2.5,0.5,3.7,1.7,3.7,3.7v219.3c-6.6,7.7-46.4,35.3-119.4,82.6c78.7,54.9,118.5,83.1,119.4,84.7v113.6
        l-2,3.7l-194.2-132.6v109.5c0,2.5-1.2,3.7-3.7,3.7h-109.8c-2.5,0-3.7-1.2-3.7-3.7V102.1C1974,99.6,1975.3,98.3,1977.3,98.3z
         M2090.9,190.5v156.1c52.4-36,78.7-54.6,78.9-55.8V190.5H2090.9z"/>
</svg>
